<svg xmlns="http://www.w3.org/2000/svg" width="19" height="24" viewBox="0 0 19 24"><path d="M17.384 17.705a1.3 1.3 0 0 1-.375.911l-1.821 1.821c-.241.241-.576.375-.911.375s-.67-.134-.911-.375l-3.938-3.938-3.938 3.938c-.241.241-.576.375-.911.375s-.67-.134-.911-.375l-1.821-1.821c-.241-.241-.375-.576-.375-.911s.134-.67.375-.911l3.938-3.938-3.938-3.938c-.241-.241-.375-.576-.375-.911s.134-.67.375-.911l1.821-1.821c.241-.241.576-.375.911-.375s.67.134.911.375l3.938 3.938 3.938-3.938c.241-.241.576-.375.911-.375s.67.134.911.375l1.821 1.821c.241.241.375.576.375.911s-.134.67-.375.911l-3.938 3.938 3.938 3.938a1.3 1.3 0 0 1 .375.911z"/></svg>