<svg xmlns="http://www.w3.org/2000/svg" width="28" height="28" viewBox="0 0 28 28"><path d="M24.5 10.5h-21C1.567 10.5 0 12.07 0 14v5.25C0 20.216.784 21 1.75 21H3.5v5.25c0 .966.784 1.75 1.75 1.75h17.5a1.75 1.75 0 0 0 1.75-1.75V21h1.75A1.75 1.75 0 0 0 28 19.25V14c0-1.93-1.57-3.5-3.5-3.5zm-3.5 14H7v-5.25h14v5.25zm2.625-8.312a1.313 1.313 0 1 1 0-2.626 1.313 1.313 0 0 1 0 2.626zM7 3.5h12.551L21 4.95v3.8h3.5V4.225a1.75 1.75 0 0 0-.513-1.237L21.512.513A1.75 1.75 0 0 0 20.277 0H5.249a1.75 1.75 0 0 0-1.75 1.75v7h3.5V3.5z"/></svg>