<svg xmlns="http://www.w3.org/2000/svg" width="60" height="60" viewBox="0 0 60 60"><g fill="none" stroke="#0085ba" stroke-linejoin="round" stroke-miterlimit="10" stroke-width="2"><path stroke-linecap="round" d="M49 47c0 6.6-5.4 12-12 12H23c-6.6 0-12-5.4-12-12V13c0-6.6 5.4-12 12-12h14c6.6 0 12 5.4 12 12v34zm4-33h6v10h-6z"/><path d="M49 16h4m-4 6h4"/><path stroke-linecap="round" d="M1 14h6v10H1z"/><path d="M11 16H7m4 6H7"/><path stroke-linecap="round" d="M43 44c0 5.571-3.43 10-9 10h-8c-5.571 0-9-4.429-9-10v-5h26v5z"/><path stroke-linecap="round" d="M21 39v4h-4m22-4v4h-6v-4"/><path d="M24.957 53.946c0-2.785 0-6.468 5.043-3.946 5.044-2.521 5.044 1.161 5.044 3.946M34 1c0 10.087 6.174 18 15 18M16.294 30.507C14.756 31.034 13.105 31 11 31M26 1v17c0 2.444-1.591 5.099-3.492 7.885"/><path stroke-linecap="round" d="M24 9h5m-5 5h5m-5 5h5m3.86-10.44l4.37-2.52m-1.64 9.48l3.95-3.14m4.33 3.16l-2.52 4.37"/><circle cx="20" cy="29" r="4"/><circle cx="40" cy="29" r="4"/></g></svg>