<svg xmlns="http://www.w3.org/2000/svg" width="0" height="0" display="none">
	<symbol id="icon-envelope" viewBox="0 0 28 28"><path d="M28 11.094V23.5c0 1.375-1.125 2.5-2.5 2.5h-23A2.507 2.507 0 0 1 0 23.5V11.094c.469.516 1 .969 1.578 1.359 2.594 1.766 5.219 3.531 7.766 5.391 1.313.969 2.938 2.156 4.641 2.156h.031c1.703 0 3.328-1.188 4.641-2.156 2.547-1.844 5.172-3.625 7.781-5.391a9.278 9.278 0 0 0 1.563-1.359zM28 6.5c0 1.75-1.297 3.328-2.672 4.281-2.438 1.687-4.891 3.375-7.313 5.078-1.016.703-2.734 2.141-4 2.141h-.031c-1.266 0-2.984-1.437-4-2.141-2.422-1.703-4.875-3.391-7.297-5.078-1.109-.75-2.688-2.516-2.688-3.938 0-1.531.828-2.844 2.5-2.844h23c1.359 0 2.5 1.125 2.5 2.5z"/></symbol><symbol id="icon-facebook" viewBox="0 0 16 28"><path d="M14.984.187v4.125h-2.453c-1.922 0-2.281.922-2.281 2.25v2.953h4.578l-.609 4.625H10.25v11.859H5.469V14.14H1.485V9.515h3.984V6.109C5.469 2.156 7.891 0 11.422 0c1.687 0 3.141.125 3.563.187z"/></symbol><symbol id="icon-linkedin" viewBox="0 0 24 28"><path d="M5.453 9.766V25.25H.297V9.766h5.156zm.328-4.782c.016 1.484-1.109 2.672-2.906 2.672h-.031C1.11 7.656 0 6.468 0 4.984c0-1.516 1.156-2.672 2.906-2.672 1.766 0 2.859 1.156 2.875 2.672zM24 16.375v8.875h-5.141v-8.281c0-2.078-.75-3.5-2.609-3.5-1.422 0-2.266.953-2.641 1.875-.125.344-.172.797-.172 1.266v8.641H8.296c.063-14.031 0-15.484 0-15.484h5.141v2.25h-.031c.672-1.062 1.891-2.609 4.672-2.609 3.391 0 5.922 2.219 5.922 6.969z"/></symbol><symbol id="icon-pinterest" viewBox="0 0 20 28"><path d="M0 9.328C0 3.562 5.281 0 10.625 0 15.531 0 20 3.375 20 8.547c0 4.859-2.484 10.25-8.016 10.25-1.313 0-2.969-.656-3.609-1.875-1.188 4.703-1.094 5.406-3.719 9L4.437 26l-.141-.156c-.094-.984-.234-1.953-.234-2.938 0-3.187 1.469-7.797 2.188-10.891-.391-.797-.5-1.766-.5-2.641 0-1.578 1.094-3.578 2.875-3.578 1.313 0 2.016 1 2.016 2.234 0 2.031-1.375 3.938-1.375 5.906 0 1.344 1.109 2.281 2.406 2.281 3.594 0 4.703-5.187 4.703-7.953 0-3.703-2.625-5.719-6.172-5.719-4.125 0-7.313 2.969-7.313 7.156 0 2.016 1.234 3.047 1.234 3.531 0 .406-.297 1.844-.812 1.844-.078 0-.187-.031-.266-.047-2.234-.672-3.047-3.656-3.047-5.703z"/></symbol><symbol id="icon-twitter" viewBox="0 0 26 28"><path d="M25.312 6.375a10.85 10.85 0 0 1-2.531 2.609c.016.219.016.438.016.656 0 6.672-5.078 14.359-14.359 14.359-2.859 0-5.516-.828-7.75-2.266.406.047.797.063 1.219.063 2.359 0 4.531-.797 6.266-2.156a5.056 5.056 0 0 1-4.719-3.5c.313.047.625.078.953.078.453 0 .906-.063 1.328-.172a5.048 5.048 0 0 1-4.047-4.953v-.063a5.093 5.093 0 0 0 2.281.641 5.044 5.044 0 0 1-2.25-4.203c0-.938.25-1.797.688-2.547a14.344 14.344 0 0 0 10.406 5.281 5.708 5.708 0 0 1-.125-1.156 5.045 5.045 0 0 1 5.047-5.047 5.03 5.03 0 0 1 3.687 1.594 9.943 9.943 0 0 0 3.203-1.219 5.032 5.032 0 0 1-2.219 2.781c1.016-.109 2-.391 2.906-.781z"/></symbol><symbol id="icon-search" viewBox="0 0 26 28"><path d="M18 13c0-3.859-3.141-7-7-7s-7 3.141-7 7 3.141 7 7 7 7-3.141 7-7zm8 13c0 1.094-.906 2-2 2a1.96 1.96 0 0 1-1.406-.594l-5.359-5.344a10.971 10.971 0 0 1-6.234 1.937c-6.078 0-11-4.922-11-11s4.922-11 11-11 11 4.922 11 11c0 2.219-.672 4.406-1.937 6.234l5.359 5.359c.359.359.578.875.578 1.406z"/></symbol>
</svg>
